<svg viewBox="0 0 800 500" xmlns="http://www.w3.org/2000/svg">
  <!-- Pitch Background -->
  <rect width="800" height="500" fill="#2d5a27" />
  
  <!-- Boundary Lines -->
  <rect x="20" y="20" width="760" height="460" fill="none" stroke="white" stroke-width="2" />
  
  <!-- Center Line -->
  <line x1="400" y1="20" x2="400" y2="480" stroke="white" stroke-width="2" />
  
  <!-- Center Circle -->
  <circle cx="400" cy="250" r="50" fill="none" stroke="white" stroke-width="2" />
  <circle cx="400" cy="250" r="2" fill="white" />
  
  <!-- Penalty Area Left -->
  <rect x="20" y="120" width="120" height="260" fill="none" stroke="white" stroke-width="2" />
  <rect x="20" y="190" width="40" height="120" fill="none" stroke="white" stroke-width="2" />
  <circle cx="110" cy="250" r="2" fill="white" />
  <path d="M 140 190 Q 170 250 140 310" fill="none" stroke="white" stroke-width="2" />
  
  <!-- Penalty Area Right -->
  <rect x="660" y="120" width="120" height="260" fill="none" stroke="white" stroke-width="2" />
  <rect x="740" y="190" width="40" height="120" fill="none" stroke="white" stroke-width="2" />
  <circle cx="690" cy="250" r="2" fill="white" />
  <path d="M 660 190 Q 630 250 660 310" fill="none" stroke="white" stroke-width="2" />
  
  <!-- Corner Arcs -->
  <path d="M 20 40 A 20 20 0 0 0 40 20" fill="none" stroke="white" stroke-width="2" />
  <path d="M 760 20 A 20 20 0 0 0 780 40" fill="none" stroke="white" stroke-width="2" />
  <path d="M 780 460 A 20 20 0 0 0 760 480" fill="none" stroke="white" stroke-width="2" />
  <path d="M 40 480 A 20 20 0 0 0 20 460" fill="none" stroke="white" stroke-width="2" />
</svg>
